<svg width="512" height="512" viewBox="0 0 512 512" fill="none" xmlns="http://www.w3.org/2000/svg">
<path d="M256.002 1.06592C114.617 1.06592 0 115.683 0 257.067C0 383.873 92.2936 488.889 213.306 509.224V310.476H151.551V238.955H213.306V186.218C213.306 125.028 250.679 91.6829 305.272 91.6829C331.419 91.6829 353.89 93.6313 360.413 94.4894V158.449L322.548 158.468C292.865 158.468 287.142 172.57 287.142 193.272V238.918H357.97L348.732 310.44H287.142V510.934C413.803 495.518 512 387.827 512 256.994C512 115.683 397.383 1.06592 256.002 1.06592Z" fill="#7D76A5"/>
</svg>
