<svg width="512" height="512" viewBox="0 0 512 512" fill="none" xmlns="http://www.w3.org/2000/svg">
<path fill-rule="evenodd" clip-rule="evenodd" d="M256 512C397.385 512 512 397.385 512 256C512 114.615 397.385 0 256 0C114.615 0 0 114.615 0 256C0 397.385 114.615 512 256 512ZM192 128C156.654 128 128 156.654 128 192V320C128 355.346 156.654 384 192 384H320C355.346 384 384 355.346 384 320V192C384 156.654 355.346 128 320 128H192ZM255.744 309.248C285.293 309.248 309.248 285.293 309.248 255.744C309.248 226.195 285.293 202.24 255.744 202.24C226.195 202.24 202.24 226.195 202.24 255.744C202.24 285.293 226.195 309.248 255.744 309.248ZM341.504 187.136C341.504 196.043 334.283 203.264 325.376 203.264C316.469 203.264 309.248 196.043 309.248 187.136C309.248 178.229 316.469 171.008 325.376 171.008C334.283 171.008 341.504 178.229 341.504 187.136Z" fill="#7D76A5"/>
</svg>
