<svg width="512" height="512" viewBox="0 0 512 512" fill="none" xmlns="http://www.w3.org/2000/svg">
<path fill-rule="evenodd" clip-rule="evenodd" d="M256 512C397.385 512 512 397.385 512 256C512 114.615 397.385 0 256 0C114.615 0 0 114.615 0 256C0 397.385 114.615 512 256 512ZM198.902 362.545L262.912 363.717C263.014 363.717 263.219 363.717 263.217 363.875C298.862 364.541 333.592 362.448 369.137 359.849C397.507 357.86 404.229 337.265 407.743 312.706C412.122 283.044 413.09 253.026 410.798 223.161C410.688 221.745 410.581 220.316 410.474 218.878C408.339 190.303 405.939 158.188 372.193 152.268C365.012 150.993 357.68 149.873 350.398 149.668C281.449 147.433 211.887 146.865 142.785 151.657C122.314 152.977 109.077 165.109 105.714 185.442C99.7558 221.678 98.5335 258.883 101.691 295.424C101.73 295.871 101.769 296.319 101.809 296.768C104.066 322.474 106.703 352.511 137.081 358.722C153.436 362.127 170.087 362.263 186.769 362.4C190.813 362.433 194.858 362.466 198.902 362.545ZM258.506 282.435C247.478 288.778 236.423 295.137 225.28 301.54V209.905C237.565 216.957 249.762 223.977 261.973 231.004C276.236 239.212 290.517 247.43 304.975 255.723C289.421 264.652 273.989 273.529 258.506 282.435Z" fill="#7D76A5"/>
</svg>
