<svg width="300" height="300" viewBox="0 0 300 300" fill="none" xmlns="http://www.w3.org/2000/svg">
<path fill-rule="evenodd" clip-rule="evenodd" d="M150 285C224.558 285 285 224.558 285 150C285 75.4416 224.558 15 150 15C75.4416 15 15 75.4416 15 150C15 224.558 75.4416 285 150 285ZM150 300C232.843 300 300 232.843 300 150C300 67.1573 232.843 0 150 0C67.1573 0 0 67.1573 0 150C0 232.843 67.1573 300 150 300Z" fill="#3E3479"/>
<path d="M101.646 206.6C93.753 206.6 86.4996 205.267 79.8863 202.6C73.3796 199.933 68.1529 195.933 64.2062 190.6C60.2596 185.267 58.1796 178.813 57.9662 171.24C57.9662 170.28 58.2862 169.48 58.9262 168.84C59.5662 168.093 60.3662 167.72 61.3262 167.72H76.5262C78.8729 167.72 80.4729 169.107 81.3263 171.88C82.073 177.427 84.2596 181.533 87.8863 184.2C91.6196 186.867 96.3663 188.2 102.126 188.2C108.846 188.2 113.966 186.013 117.486 181.64C121.113 177.267 122.926 171.187 122.926 163.4V111.88H68.6862C67.6196 111.88 66.7129 111.507 65.9662 110.76C65.2196 110.013 64.8463 109.107 64.8463 108.04V96.84C64.8463 95.6667 65.2196 94.76 65.9662 94.12C66.7129 93.3733 67.6196 93 68.6862 93H141.806C142.98 93 143.94 93.3733 144.686 94.12C145.433 94.8667 145.806 95.8267 145.806 97V164.04C145.806 172.893 143.993 180.52 140.366 186.92C136.74 193.32 131.566 198.227 124.846 201.64C118.233 204.947 110.5 206.6 101.646 206.6Z" fill="#3E3479"/>
<path d="M170.501 205C169.435 205 168.528 204.627 167.781 203.88C167.035 203.133 166.661 202.227 166.661 201.16V96.84C166.661 95.6667 167.035 94.76 167.781 94.12C168.528 93.3733 169.435 93 170.501 93H185.381C186.555 93 187.461 93.3733 188.101 94.12C188.848 94.76 189.221 95.6667 189.221 96.84V185.96H239.941C241.115 185.96 242.075 186.333 242.821 187.08C243.568 187.827 243.941 188.787 243.941 189.96V201.16C243.941 202.333 243.568 203.293 242.821 204.04C242.075 204.68 241.115 205 239.941 205H170.501Z" fill="#3E3479"/>
</svg>
